<svg id="visual" viewBox="0 0 900 600" width="900" height="600" xmlns="http://www.w3.org/2000/svg" xmlns:xlink="http://www.w3.org/1999/xlink" version="1.1"><rect x="0" y="0" width="900" height="600" fill="#ffffff"></rect><path d="M738 600L733.7 592.3C729.3 584.7 720.7 569.3 712.5 554C704.3 538.7 696.7 523.3 703.3 508C710 492.7 731 477.3 743 461.8C755 446.3 758 430.7 747.5 415.2C737 399.7 713 384.3 714.5 369C716 353.7 743 338.3 752.2 323C761.3 307.7 752.7 292.3 739.7 277C726.7 261.7 709.3 246.3 712.2 231C715 215.7 738 200.3 747 184.8C756 169.3 751 153.7 735.5 138.2C720 122.7 694 107.3 687.3 92C680.7 76.7 693.3 61.3 703.8 46C714.3 30.7 722.7 15.3 726.8 7.7L731 0L900 0L900 7.7C900 15.3 900 30.7 900 46C900 61.3 900 76.7 900 92C900 107.3 900 122.7 900 138.2C900 153.7 900 169.3 900 184.8C900 200.3 900 215.7 900 231C900 246.3 900 261.7 900 277C900 292.3 900 307.7 900 323C900 338.3 900 353.7 900 369C900 384.3 900 399.7 900 415.2C900 430.7 900 446.3 900 461.8C900 477.3 900 492.7 900 508C900 523.3 900 538.7 900 554C900 569.3 900 584.7 900 592.3L900 600Z" fill="#147bc7" stroke-linecap="round" stroke-linejoin="miter"></path></svg>