<svg id="visual" viewBox="0 0 900 600" width="900" height="600" xmlns="http://www.w3.org/2000/svg" xmlns:xlink="http://www.w3.org/1999/xlink" version="1.1"><rect x="0" y="0" width="900" height="600" fill="#ffffff"></rect><path d="M164 0L168.3 7.7C172.7 15.3 181.3 30.7 189.5 46C197.7 61.3 205.3 76.7 198.7 92C192 107.3 171 122.7 159 138.2C147 153.7 144 169.3 154.5 184.8C165 200.3 189 215.7 187.5 231C186 246.3 159 261.7 149.8 277C140.7 292.3 149.3 307.7 162.3 323C175.3 338.3 192.7 353.7 189.8 369C187 384.3 164 399.7 155 415.2C146 430.7 151 446.3 166.5 461.8C182 477.3 208 492.7 214.7 508C221.3 523.3 208.7 538.7 198.2 554C187.7 569.3 179.3 584.7 175.2 592.3L171 600L0 600L0 592.3C0 584.7 0 569.3 0 554C0 538.7 0 523.3 0 508C0 492.7 0 477.3 0 461.8C0 446.3 0 430.7 0 415.2C0 399.7 0 384.3 0 369C0 353.7 0 338.3 0 323C0 307.7 0 292.3 0 277C0 261.7 0 246.3 0 231C0 215.7 0 200.3 0 184.8C0 169.3 0 153.7 0 138.2C0 122.7 0 107.3 0 92C0 76.7 0 61.3 0 46C0 30.7 0 15.3 0 7.7L0 0Z" fill="#147bc7" stroke-linecap="round" stroke-linejoin="miter"></path></svg>