<svg id="visual" viewBox="0 0 900 600" width="900" height="600" xmlns="http://www.w3.org/2000/svg" xmlns:xlink="http://www.w3.org/1999/xlink" version="1.1"><rect x="0" y="0" width="900" height="600" fill="#ffffff"></rect><path d="M0 295L37.5 261C75 227 150 159 225 128.2C300 97.3 375 103.7 450 104.5C525 105.3 600 100.7 675 118C750 135.3 825 174.7 862.5 194.3L900 214L900 0L862.5 0C825 0 750 0 675 0C600 0 525 0 450 0C375 0 300 0 225 0C150 0 75 0 37.5 0L0 0Z" fill="#147bc7" stroke-linecap="round" stroke-linejoin="miter"></path></svg>