<svg id="visual" viewBox="0 0 900 600" width="900" height="600" xmlns="http://www.w3.org/2000/svg" xmlns:xlink="http://www.w3.org/1999/xlink" version="1.1"><rect x="0" y="0" width="900" height="600" fill="#002233"></rect><path d="M0 184L21.5 167C43 150 86 116 128.8 118C171.7 120 214.3 158 257.2 168C300 178 343 160 385.8 147.8C428.7 135.7 471.3 129.3 514.2 138.2C557 147 600 171 642.8 174.3C685.7 177.7 728.3 160.3 771.2 152.7C814 145 857 147 878.5 148L900 149L900 0L878.5 0C857 0 814 0 771.2 0C728.3 0 685.7 0 642.8 0C600 0 557 0 514.2 0C471.3 0 428.7 0 385.8 0C343 0 300 0 257.2 0C214.3 0 171.7 0 128.8 0C86 0 43 0 21.5 0L0 0Z" fill="#0066FF" stroke-linecap="round" stroke-linejoin="miter"></path></svg>